<?xml version="1.0" standalone="no"?>
<!DOCTYPE svg PUBLIC "-//W3C//DTD SVG 20010904//EN"
 "http://www.w3.org/TR/2001/REC-SVG-20010904/DTD/svg10.dtd">
<svg version="1.0" xmlns="http://www.w3.org/2000/svg"
 width="512.000000pt" height="512.000000pt" viewBox="0 0 512.000000 512.000000"
 preserveAspectRatio="xMidYMid meet">
<metadata>
Created by potrace 1.11, written by Peter Selinger 2001-2013
</metadata>
<g transform="translate(0.000000,512.000000) scale(0.100000,-0.100000)"
fill="#000000" stroke="none">
<path d="M2367 5110 c-434 -34 -850 -176 -1212 -415 -909 -600 -1337 -1698
-1075 -2755 207 -832 829 -1513 1639 -1794 474 -165 990 -186 1477 -62 898
229 1612 942 1840 1840 182 716 47 1483 -368 2082 -413 598 -1061 997 -1768
1088 -149 19 -396 27 -533 16z m248 -1184 c37 -16 75 -67 75 -103 0 -53 39
-81 145 -103 33 -8 66 -18 73 -23 9 -7 12 -41 10 -126 l-3 -116 -355 0 -355 0
-3 116 c-2 85 1 119 10 126 7 5 40 15 73 23 106 22 145 50 145 103 0 35 37 87
73 102 41 18 69 18 112 1z m-525 -383 c0 -101 24 -153 84 -182 40 -20 59 -21
387 -21 314 0 348 2 385 19 59 27 84 82 84 184 l0 77 258 0 c187 0 261 -3 270
-12 17 -17 17 -2399 0 -2416 -17 -17 -1979 -17 -1996 0 -17 17 -17 2399 0
2416 9 9 83 12 270 12 l258 0 0 -77z"/>
<path d="M1980 2965 c-41 -41 -79 -75 -84 -75 -6 0 -24 13 -41 30 l-31 30 -37
-38 -37 -38 73 -72 72 -72 120 120 119 120 -34 35 c-19 19 -37 35 -40 35 -3 0
-39 -34 -80 -75z"/>
<path d="M2410 2960 l0 -50 510 0 510 0 0 50 0 50 -510 0 -510 0 0 -50z"/>
<path d="M2410 2755 l0 -55 305 0 305 0 0 55 0 55 -305 0 -305 0 0 -55z"/>
<path d="M1978 2351 l-85 -80 -31 32 -32 31 -40 -39 -40 -39 67 -68 c37 -37
73 -68 79 -68 12 0 234 226 234 239 0 4 -15 22 -34 40 l-33 32 -85 -80z"/>
<path d="M2410 2345 l0 -55 150 0 150 0 0 55 0 55 -150 0 -150 0 0 -55z"/>
<path d="M2820 2345 l0 -55 305 0 305 0 0 55 0 55 -305 0 -305 0 0 -55z"/>
<path d="M2410 2140 l0 -50 410 0 410 0 0 50 0 50 -410 0 -410 0 0 -50z"/>
<path d="M1970 1734 l-81 -77 -32 32 -33 31 -37 -38 -37 -38 73 -72 72 -72
118 118 c64 64 117 122 117 128 0 13 -53 64 -67 64 -6 0 -48 -34 -93 -76z"/>
<path d="M2410 1730 l0 -50 510 0 510 0 0 50 0 50 -510 0 -510 0 0 -50z"/>
<path d="M2410 1525 l0 -55 150 0 150 0 0 55 0 55 -150 0 -150 0 0 -55z"/>
<path d="M2820 1525 l0 -55 150 0 150 0 0 55 0 55 -150 0 -150 0 0 -55z"/>
</g>
</svg>
